<svg width="512" height="512" viewBox="0 0 512 512" fill="none" xmlns="http://www.w3.org/2000/svg">
  <!-- Background gradient -->
  <defs>
    <linearGradient id="gradient" x1="0%" y1="0%" x2="100%" y2="100%">
      <stop offset="0%" style="stop-color:#8b5cf6;stop-opacity:1" />
      <stop offset="100%" style="stop-color:#ec4899;stop-opacity:1" />
    </linearGradient>
  </defs>
  
  <!-- Background circle -->
  <circle cx="256" cy="256" r="256" fill="url(#gradient)"/>
  
  <!-- Lightbulb icon -->
  <g transform="translate(256,256)">
    <!-- Bulb body -->
    <path d="M-48 -80 C-48 -115.3 -19.3 -144 16 -144 C51.3 -144 80 -115.3 80 -80 C80 -44.7 51.3 -16 16 -16 L-16 -16 C-51.3 -16 -80 -44.7 -80 -80 Z" fill="white" opacity="0.9"/>
    
    <!-- Filament lines -->
    <path d="M-32 -64 L32 -64 M-24 -48 L24 -48 M-16 -32 L16 -32" stroke="url(#gradient)" stroke-width="4" stroke-linecap="round"/>
    
    <!-- Base -->
    <rect x="-24" y="16" width="48" height="16" rx="4" fill="white" opacity="0.9"/>
    <rect x="-20" y="32" width="40" height="8" rx="4" fill="white" opacity="0.7"/>
    
    <!-- Glow effect -->
    <circle cx="0" cy="-48" r="96" fill="none" stroke="white" stroke-width="2" opacity="0.3"/>
    <circle cx="0" cy="-48" r="112" fill="none" stroke="white" stroke-width="1" opacity="0.2"/>
  </g>
  
  <!-- Floating particles -->
  <circle cx="128" cy="128" r="4" fill="white" opacity="0.6"/>
  <circle cx="384" cy="256" r="3" fill="white" opacity="0.5"/>
  <circle cx="96" cy="384" r="2" fill="white" opacity="0.7"/>
  <circle cx="416" cy="96" r="3" fill="white" opacity="0.4"/>
</svg>